<svg width="204" height="47" viewBox="0 0 204 47" fill="none" xmlns="http://www.w3.org/2000/svg">
<path d="M78.5146 16.384L82.5266 23.3613H77.3711L74.774 18.4578H73.4948V23.3613H68.9208V9.79432H73.4948V14.8529H74.8903L77.7781 9.79432H82.546L78.5146 16.384ZM90.2648 23.6714C88.8047 23.6714 87.4932 23.3678 86.3303 22.7605C85.1675 22.1532 84.2565 21.3134 83.5976 20.2409C82.9386 19.1556 82.6091 17.9345 82.6091 16.5778C82.6091 15.2211 82.9386 14.0066 83.5976 12.9341C84.2565 11.8488 85.1675 11.0024 86.3303 10.3951C87.4932 9.78786 88.8047 9.48421 90.2648 9.48421C91.7248 9.48421 93.0363 9.78786 94.1992 10.3951C95.3621 11.0024 96.273 11.8488 96.932 12.9341C97.591 14.0066 97.9204 15.2211 97.9204 16.5778C97.9204 17.9345 97.591 19.1556 96.932 20.2409C96.273 21.3134 95.3621 22.1532 94.1992 22.7605C93.0363 23.3678 91.7248 23.6714 90.2648 23.6714ZM90.2648 19.9696C90.8333 19.9696 91.3437 19.8339 91.7959 19.5626C92.2611 19.2783 92.6293 18.8842 92.9007 18.3803C93.172 17.8635 93.3077 17.2626 93.3077 16.5778C93.3077 15.893 93.172 15.2986 92.9007 14.7947C92.6293 14.2779 92.2611 13.8838 91.7959 13.6125C91.3437 13.3282 90.8333 13.1861 90.2648 13.1861C89.6963 13.1861 89.1794 13.3282 88.7143 13.6125C88.262 13.8838 87.9002 14.2779 87.6289 14.7947C87.3576 15.2986 87.2219 15.893 87.2219 16.5778C87.2219 17.2626 87.3576 17.8635 87.6289 18.3803C87.9002 18.8842 88.262 19.2783 88.7143 19.5626C89.1794 19.8339 89.6963 19.9696 90.2648 19.9696ZM114.403 19.8145V26.0166H110.216V23.3613H102.502V26.0166H98.3159V19.8145H98.7036C99.4918 19.8145 100.047 19.3171 100.37 18.3222C100.693 17.3272 100.9 15.8607 100.991 13.9226L101.146 9.79432H112.619V19.8145H114.403ZM104.964 14.3102C104.912 15.6152 104.809 16.7264 104.654 17.6438C104.499 18.5483 104.26 19.2718 103.937 19.8145H108.123V13.3411H105.003L104.964 14.3102ZM122.838 23.6714C121.378 23.6714 120.067 23.3678 118.904 22.7605C117.741 22.1532 116.83 21.3134 116.171 20.2409C115.512 19.1556 115.183 17.9345 115.183 16.5778C115.183 15.2211 115.512 14.0066 116.171 12.9341C116.83 11.8488 117.741 11.0024 118.904 10.3951C120.067 9.78786 121.378 9.48421 122.838 9.48421C124.299 9.48421 125.61 9.78786 126.773 10.3951C127.936 11.0024 128.847 11.8488 129.506 12.9341C130.165 14.0066 130.494 15.2211 130.494 16.5778C130.494 17.9345 130.165 19.1556 129.506 20.2409C128.847 21.3134 127.936 22.1532 126.773 22.7605C125.61 23.3678 124.299 23.6714 122.838 23.6714ZM122.838 19.9696C123.407 19.9696 123.917 19.8339 124.37 19.5626C124.835 19.2783 125.203 18.8842 125.474 18.3803C125.746 17.8635 125.881 17.2626 125.881 16.5778C125.881 15.893 125.746 15.2986 125.474 14.7947C125.203 14.2779 124.835 13.8838 124.37 13.6125C123.917 13.3282 123.407 13.1861 122.838 13.1861C122.27 13.1861 121.753 13.3282 121.288 13.6125C120.836 13.8838 120.474 14.2779 120.203 14.7947C119.931 15.2986 119.796 15.893 119.796 16.5778C119.796 17.2626 119.931 17.8635 120.203 18.3803C120.474 18.8842 120.836 19.2783 121.288 19.5626C121.753 19.8339 122.27 19.9696 122.838 19.9696ZM142.568 16.2483C143.33 16.5197 143.911 16.9267 144.312 17.4694C144.712 17.9991 144.913 18.6516 144.913 19.4269C144.913 20.6415 144.428 21.6041 143.459 22.3147C142.503 23.0125 141.146 23.3613 139.389 23.3613H132.14V9.79432H139.021C140.7 9.79432 141.999 10.1044 142.916 10.7246C143.847 11.3448 144.312 12.217 144.312 13.3411C144.312 13.9872 144.157 14.5557 143.847 15.0467C143.55 15.5377 143.123 15.9382 142.568 16.2483ZM136.637 15.0079H138.575C139.324 15.0079 139.699 14.6784 139.699 14.0195C139.699 13.3347 139.324 12.9923 138.575 12.9923H136.637V15.0079ZM139.176 20.1634C139.925 20.1634 140.3 19.8016 140.3 19.078C140.3 18.3803 139.925 18.0314 139.176 18.0314H136.637V20.1634H139.176ZM153.366 23.6714C151.932 23.6714 150.64 23.3742 149.49 22.7799C148.34 22.1726 147.435 21.3327 146.777 20.2603C146.13 19.1749 145.807 17.9474 145.807 16.5778C145.807 15.2082 146.13 13.9872 146.777 12.9147C147.435 11.8294 148.34 10.9895 149.49 10.3951C150.64 9.78786 151.932 9.48421 153.366 9.48421C154.684 9.48421 155.86 9.71679 156.894 10.1819C157.927 10.6471 158.78 11.319 159.452 12.1976L156.564 14.7753C155.724 13.7158 154.736 13.1861 153.599 13.1861C152.643 13.1861 151.874 13.4962 151.292 14.1164C150.711 14.7237 150.42 15.5441 150.42 16.5778C150.42 17.6115 150.711 18.4384 151.292 19.0586C151.874 19.6659 152.643 19.9696 153.599 19.9696C154.736 19.9696 155.724 19.4398 156.564 18.3803L159.452 20.958C158.78 21.8367 157.927 22.5085 156.894 22.9737C155.86 23.4389 154.684 23.6714 153.366 23.6714ZM172.291 13.3411H168.317V23.3613H163.821V13.3411H159.848V9.79432H172.291V13.3411ZM184.226 16.2483C184.989 16.5197 185.57 16.9267 185.971 17.4694C186.371 17.9991 186.571 18.6516 186.571 19.4269C186.571 20.6415 186.087 21.6041 185.118 22.3147C184.162 23.0125 182.805 23.3613 181.048 23.3613H173.799V9.79432H180.68C182.359 9.79432 183.658 10.1044 184.575 10.7246C185.505 11.3448 185.971 12.217 185.971 13.3411C185.971 13.9872 185.816 14.5557 185.505 15.0467C185.208 15.5377 184.782 15.9382 184.226 16.2483ZM178.296 15.0079H180.234C180.983 15.0079 181.358 14.6784 181.358 14.0195C181.358 13.3347 180.983 12.9923 180.234 12.9923H178.296V15.0079ZM180.835 20.1634C181.584 20.1634 181.959 19.8016 181.959 19.078C181.959 18.3803 181.584 18.0314 180.835 18.0314H178.296V20.1634H180.835ZM195.102 23.6714C193.642 23.6714 192.331 23.3678 191.168 22.7605C190.005 22.1532 189.094 21.3134 188.435 20.2409C187.776 19.1556 187.447 17.9345 187.447 16.5778C187.447 15.2211 187.776 14.0066 188.435 12.9341C189.094 11.8488 190.005 11.0024 191.168 10.3951C192.331 9.78786 193.642 9.48421 195.102 9.48421C196.563 9.48421 197.874 9.78786 199.037 10.3951C200.2 11.0024 201.111 11.8488 201.77 12.9341C202.429 14.0066 202.758 15.2211 202.758 16.5778C202.758 17.9345 202.429 19.1556 201.77 20.2409C201.111 21.3134 200.2 22.1532 199.037 22.7605C197.874 23.3678 196.563 23.6714 195.102 23.6714ZM195.102 19.9696C195.671 19.9696 196.181 19.8339 196.634 19.5626C197.099 19.2783 197.467 18.8842 197.738 18.3803C198.01 17.8635 198.145 17.2626 198.145 16.5778C198.145 15.893 198.01 15.2986 197.738 14.7947C197.467 14.2779 197.099 13.8838 196.634 13.6125C196.181 13.3282 195.671 13.1861 195.102 13.1861C194.534 13.1861 194.017 13.3282 193.552 13.6125C193.1 13.8838 192.738 14.2779 192.467 14.7947C192.195 15.2986 192.06 15.893 192.06 16.5778C192.06 17.2626 192.195 17.8635 192.467 18.3803C192.738 18.8842 193.1 19.2783 193.552 19.5626C194.017 19.8339 194.534 19.9696 195.102 19.9696ZM72.7109 38.1866C73.1004 38.2913 73.397 38.4716 73.6005 38.7274C73.804 38.9774 73.9057 39.2914 73.9057 39.6693C73.9057 40.2043 73.708 40.62 73.3126 40.9165C72.9173 41.2131 72.3445 41.3613 71.5945 41.3613H68.6989V35.2562H71.4288C72.1149 35.2562 72.6498 35.3928 73.0336 35.6661C73.4173 35.9394 73.6092 36.326 73.6092 36.8261C73.6092 37.1459 73.5307 37.422 73.3737 37.6546C73.2225 37.8872 73.0016 38.0645 72.7109 38.1866ZM69.8153 37.8639H71.3328C71.6991 37.8639 71.9782 37.7913 72.1701 37.6459C72.362 37.5005 72.4579 37.2854 72.4579 37.0005C72.4579 36.7156 72.362 36.5005 72.1701 36.3551C71.9782 36.2039 71.6991 36.1283 71.3328 36.1283H69.8153V37.8639ZM71.5596 40.4892C72.362 40.4892 72.7632 40.1868 72.7632 39.5821C72.7632 38.989 72.362 38.6925 71.5596 38.6925H69.8153V40.4892H71.5596ZM79.7762 40.4107V41.3613H75.1973V35.2562H79.6541V36.2068H76.3312V37.7942H79.2791V38.7274H76.3312V40.4107H79.7762ZM81.0489 35.2562H85.8022V36.1894H82.1653V37.6895H83.9706C84.7033 37.6895 85.2585 37.8436 85.6365 38.1518C86.0202 38.4541 86.2121 38.8931 86.2121 39.4687C86.2121 40.0734 86.0028 40.5415 85.5841 40.8729C85.1655 41.1985 84.5695 41.3613 83.7962 41.3613H81.0489V35.2562ZM83.7352 40.4892C84.1712 40.4892 84.5027 40.4049 84.7294 40.2362C84.9562 40.0676 85.0696 39.8234 85.0696 39.5036C85.0696 38.8757 84.6248 38.5617 83.7352 38.5617H82.1653V40.4892H83.7352ZM87.0786 38.4832H89.4771V39.3902H87.0786V38.4832ZM93.6604 41.4485C93.0441 41.4485 92.4859 41.3148 91.9858 41.0473C91.4916 40.7741 91.102 40.399 90.8171 39.9223C90.538 39.4455 90.3985 38.9076 90.3985 38.3088C90.3985 37.7099 90.5409 37.172 90.8259 36.6952C91.1108 36.2185 91.5003 35.8463 91.9946 35.5789C92.4946 35.3056 93.0528 35.169 93.6691 35.169C94.1692 35.169 94.6256 35.2562 95.0384 35.4306C95.4512 35.605 95.8001 35.858 96.085 36.1894L95.3524 36.8784C94.9105 36.4016 94.3668 36.1632 93.7214 36.1632C93.3028 36.1632 92.9278 36.2563 92.5964 36.4423C92.2649 36.6226 92.0062 36.8755 91.8201 37.2011C91.6341 37.5267 91.541 37.8959 91.541 38.3088C91.541 38.7216 91.6341 39.0908 91.8201 39.4164C92.0062 39.742 92.2649 39.9978 92.5964 40.1839C92.9278 40.3642 93.3028 40.4543 93.7214 40.4543C94.3668 40.4543 94.9105 40.213 95.3524 39.7304L96.085 40.4281C95.8001 40.7595 95.4483 41.0125 95.0297 41.1869C94.6169 41.3613 94.1604 41.4485 93.6604 41.4485ZM101.5 36.2156H99.4768V41.3613H98.3517V36.2156H96.337V35.2562H101.5V36.2156ZM107.456 35.2562L104.804 40.1839C104.572 40.62 104.293 40.9485 103.967 41.1695C103.647 41.3846 103.298 41.4922 102.92 41.4922C102.618 41.4922 102.319 41.4282 102.022 41.3003L102.301 40.4107C102.54 40.4863 102.737 40.524 102.894 40.524C103.261 40.524 103.563 40.3351 103.801 39.9571L103.897 39.8089L101.464 35.2562H102.676L104.482 38.8408L106.339 35.2562H107.456ZM114.203 40.4019V42.6609H113.157V41.3613H108.473V42.6609H107.418L107.427 40.4019H107.688C108.072 40.3845 108.339 40.1025 108.491 39.5559C108.648 39.0036 108.744 38.2157 108.778 37.1924L108.848 35.2562H113.322V40.4019H114.203ZM109.773 37.297C109.744 38.0878 109.68 38.7477 109.581 39.2769C109.482 39.8002 109.325 40.1752 109.11 40.4019H112.206V36.2156H109.816L109.773 37.297ZM115.28 35.2562H116.396V39.5908L119.675 35.2562H120.731V41.3613H119.614V37.0354L116.335 41.3613H115.28V35.2562ZM127.109 35.2562V41.3613H125.992V39.6606H124.483H124.361L123.227 41.3613H122.033L123.341 39.4775C122.916 39.3205 122.588 39.0733 122.355 38.7361C122.128 38.3931 122.015 37.9802 122.015 37.4976C122.015 37.0325 122.12 36.6313 122.329 36.294C122.538 35.9568 122.835 35.701 123.219 35.5265C123.602 35.3463 124.053 35.2562 124.571 35.2562H127.109ZM124.605 36.2156C124.14 36.2156 123.783 36.3231 123.533 36.5383C123.288 36.7534 123.166 37.0674 123.166 37.4802C123.166 37.8814 123.286 38.1925 123.524 38.4134C123.762 38.6285 124.108 38.7361 124.562 38.7361H125.992V36.2156H124.605Z" fill="#6EB1FF"/>
<path d="M40.5995 0.0213599C39.619 -0.0638072 37.8418 0.719122 37.3582 1.56471C36.0241 4.2055 34.6728 7.1614 33.8443 10.0814C33.0905 12.7398 32.3257 14.5503 31.4751 16.9757C30.144 20.7741 29.4907 24.134 28.3741 25.698C28.0064 26.2151 29.7977 24.3749 28.987 23.8888C27.9709 23.6102 27.3525 25.4632 26.0877 25.3677C24.004 25.1481 27.9874 23.8316 28.539 22.8589C30.0527 19.6025 26.3389 23.6224 25.185 23.7021C12.2965 29.4283 4.5963 8.89455 17.7801 6.08343C19.8607 5.52741 25.6856 4.22375 24.7364 7.67423C24.4103 8.61837 23.7185 9.43841 23.0106 10.1982C21.8922 11.3936 21.8248 12.1127 19.1633 12.2666C15.7253 12.6979 15.7051 18.4454 19.1553 18.7758C21.4124 19.2825 23.5107 17.4027 23.3354 15.6124C23.6112 14.7084 23.0842 14.2601 23.8962 13.8099C25.6385 12.3383 27.6957 9.77117 27.7607 9.68357C28.5053 8.77654 28.7308 8.65426 29.0262 7.66085C29.878 4.79498 29.3265 5.5706 27.6014 3.97068C26.5191 2.02948 24.1382 2.20285 22.3684 1.86219C21.8248 1.59087 23.9568 1.28001 22.9683 0.97949C22.3917 0.804897 18.9525 1.48258 18.2912 1.22891C17.5981 0.963065 19.8687 0.202644 19.1382 0.0201433C17.9162 -0.119774 16.8572 0.506812 15.7406 0.740414C14.4582 0.996547 13.2208 1.43911 12.0685 2.05381C10.4556 2.92738 8.90205 4.04125 8.11762 5.30598C8.09023 5.37568 8.04009 5.43425 7.97522 5.47234C7.91034 5.51043 7.83448 5.52584 7.75975 5.51611C7.68502 5.50637 7.61574 5.47205 7.56297 5.41863C7.51019 5.36521 7.47698 5.29578 7.46863 5.22142C7.35342 4.56502 7.13035 3.86422 6.91709 3.15855C6.10141 -0.636252 -0.925308 -1.0341 0.102409 3.67381C2.00218 11.2087 8.85425 26.6288 12.5374 36.9541C13.4909 39.6265 15.1443 42.2648 16.6531 44.6672C18.5633 47.7557 23.0744 47.7825 25.0213 44.7177C26.5755 42.3451 28.0475 39.84 29.0182 37.1791C33.3166 25.8191 38.3786 14.2795 42.9319 3.40675C43.6165 1.77398 42.3822 -0.0218319 40.5995 0.0213599ZM25.5386 29.7927C26.809 29.4174 25.9314 30.8695 25.7518 31.215C24.1769 34.2378 21.7445 42.4048 19.4826 38.6678C11.3589 25.246 18.0651 31.9986 25.5386 29.7927Z" fill="#6EB1FF"/>
</svg>
