<svg width="420" height="97" viewBox="0 0 420 97" fill="none" xmlns="http://www.w3.org/2000/svg">
<path d="M162.04 33.6L170.32 48H159.68L154.32 37.88H151.68V48H142.24V20H151.68V30.44H154.56L160.52 20H170.36L162.04 33.6ZM186.29 48.64C183.277 48.64 180.57 48.0133 178.17 46.76C175.77 45.5067 173.89 43.7733 172.53 41.56C171.17 39.32 170.49 36.8 170.49 34C170.49 31.2 171.17 28.6933 172.53 26.48C173.89 24.24 175.77 22.4933 178.17 21.24C180.57 19.9867 183.277 19.36 186.29 19.36C189.304 19.36 192.01 19.9867 194.41 21.24C196.81 22.4933 198.69 24.24 200.05 26.48C201.41 28.6933 202.09 31.2 202.09 34C202.09 36.8 201.41 39.32 200.05 41.56C198.69 43.7733 196.81 45.5067 194.41 46.76C192.01 48.0133 189.304 48.64 186.29 48.64ZM186.29 41C187.464 41 188.517 40.72 189.45 40.16C190.41 39.5733 191.17 38.76 191.73 37.72C192.29 36.6533 192.57 35.4133 192.57 34C192.57 32.5867 192.29 31.36 191.73 30.32C191.17 29.2533 190.41 28.44 189.45 27.88C188.517 27.2933 187.464 27 186.29 27C185.117 27 184.05 27.2933 183.09 27.88C182.157 28.44 181.41 29.2533 180.85 30.32C180.29 31.36 180.01 32.5867 180.01 34C180.01 35.4133 180.29 36.6533 180.85 37.72C181.41 38.76 182.157 39.5733 183.09 40.16C184.05 40.72 185.117 41 186.29 41ZM236.107 40.68V53.48H227.467V48H211.547V53.48H202.907V40.68H203.707C205.333 40.68 206.48 39.6533 207.147 37.6C207.813 35.5467 208.24 32.52 208.427 28.52L208.747 20H232.427V40.68H236.107ZM216.627 29.32C216.52 32.0133 216.307 34.3067 215.987 36.2C215.667 38.0667 215.173 39.56 214.507 40.68H223.147V27.32H216.707L216.627 29.32ZM253.517 48.64C250.504 48.64 247.797 48.0133 245.397 46.76C242.997 45.5067 241.117 43.7733 239.757 41.56C238.397 39.32 237.717 36.8 237.717 34C237.717 31.2 238.397 28.6933 239.757 26.48C241.117 24.24 242.997 22.4933 245.397 21.24C247.797 19.9867 250.504 19.36 253.517 19.36C256.53 19.36 259.237 19.9867 261.637 21.24C264.037 22.4933 265.917 24.24 267.277 26.48C268.637 28.6933 269.317 31.2 269.317 34C269.317 36.8 268.637 39.32 267.277 41.56C265.917 43.7733 264.037 45.5067 261.637 46.76C259.237 48.0133 256.53 48.64 253.517 48.64ZM253.517 41C254.69 41 255.744 40.72 256.677 40.16C257.637 39.5733 258.397 38.76 258.957 37.72C259.517 36.6533 259.797 35.4133 259.797 34C259.797 32.5867 259.517 31.36 258.957 30.32C258.397 29.2533 257.637 28.44 256.677 27.88C255.744 27.2933 254.69 27 253.517 27C252.344 27 251.277 27.2933 250.317 27.88C249.384 28.44 248.637 29.2533 248.077 30.32C247.517 31.36 247.237 32.5867 247.237 34C247.237 35.4133 247.517 36.6533 248.077 37.72C248.637 38.76 249.384 39.5733 250.317 40.16C251.277 40.72 252.344 41 253.517 41ZM294.234 33.32C295.808 33.88 297.008 34.72 297.834 35.84C298.661 36.9333 299.074 38.28 299.074 39.88C299.074 42.3867 298.074 44.3733 296.074 45.84C294.101 47.28 291.301 48 287.674 48H272.714V20H286.914C290.381 20 293.061 20.64 294.954 21.92C296.874 23.2 297.834 25 297.834 27.32C297.834 28.6533 297.514 29.8267 296.874 30.84C296.261 31.8533 295.381 32.68 294.234 33.32ZM281.994 30.76H285.994C287.541 30.76 288.314 30.08 288.314 28.72C288.314 27.3067 287.541 26.6 285.994 26.6H281.994V30.76ZM287.234 41.4C288.781 41.4 289.554 40.6533 289.554 39.16C289.554 37.72 288.781 37 287.234 37H281.994V41.4H287.234ZM316.521 48.64C313.561 48.64 310.894 48.0267 308.521 46.8C306.148 45.5467 304.281 43.8133 302.921 41.6C301.588 39.36 300.921 36.8267 300.921 34C300.921 31.1733 301.588 28.6533 302.921 26.44C304.281 24.2 306.148 22.4667 308.521 21.24C310.894 19.9867 313.561 19.36 316.521 19.36C319.241 19.36 321.668 19.84 323.801 20.8C325.934 21.76 327.694 23.1467 329.081 24.96L323.121 30.28C321.388 28.0933 319.348 27 317.001 27C315.028 27 313.441 27.64 312.241 28.92C311.041 30.1733 310.441 31.8667 310.441 34C310.441 36.1333 311.041 37.84 312.241 39.12C313.441 40.3733 315.028 41 317.001 41C319.348 41 321.388 39.9067 323.121 37.72L329.081 43.04C327.694 44.8533 325.934 46.24 323.801 47.2C321.668 48.16 319.241 48.64 316.521 48.64ZM355.578 27.32H347.378V48H338.098V27.32H329.898V20H355.578V27.32ZM380.211 33.32C381.784 33.88 382.984 34.72 383.811 35.84C384.638 36.9333 385.051 38.28 385.051 39.88C385.051 42.3867 384.051 44.3733 382.051 45.84C380.078 47.28 377.278 48 373.651 48H358.691V20H372.891C376.358 20 379.038 20.64 380.931 21.92C382.851 23.2 383.811 25 383.811 27.32C383.811 28.6533 383.491 29.8267 382.851 30.84C382.238 31.8533 381.358 32.68 380.211 33.32ZM367.971 30.76H371.971C373.518 30.76 374.291 30.08 374.291 28.72C374.291 27.3067 373.518 26.6 371.971 26.6H367.971V30.76ZM373.211 41.4C374.758 41.4 375.531 40.6533 375.531 39.16C375.531 37.72 374.758 37 373.211 37H367.971V41.4H373.211ZM402.658 48.64C399.644 48.64 396.938 48.0133 394.538 46.76C392.138 45.5067 390.258 43.7733 388.898 41.56C387.538 39.32 386.858 36.8 386.858 34C386.858 31.2 387.538 28.6933 388.898 26.48C390.258 24.24 392.138 22.4933 394.538 21.24C396.938 19.9867 399.644 19.36 402.658 19.36C405.671 19.36 408.378 19.9867 410.778 21.24C413.178 22.4933 415.058 24.24 416.418 26.48C417.778 28.6933 418.458 31.2 418.458 34C418.458 36.8 417.778 39.32 416.418 41.56C415.058 43.7733 413.178 45.5067 410.778 46.76C408.378 48.0133 405.671 48.64 402.658 48.64ZM402.658 41C403.831 41 404.884 40.72 405.818 40.16C406.778 39.5733 407.538 38.76 408.098 37.72C408.658 36.6533 408.938 35.4133 408.938 34C408.938 32.5867 408.658 31.36 408.098 30.32C407.538 29.2533 406.778 28.44 405.818 27.88C404.884 27.2933 403.831 27 402.658 27C401.484 27 400.418 27.2933 399.458 27.88C398.524 28.44 397.778 29.2533 397.218 30.32C396.658 31.36 396.378 32.5867 396.378 34C396.378 35.4133 396.658 36.6533 397.218 37.72C397.778 38.76 398.524 39.5733 399.458 40.16C400.418 40.72 401.484 41 402.658 41ZM150.062 78.448C150.866 78.664 151.478 79.036 151.898 79.564C152.318 80.08 152.528 80.728 152.528 81.508C152.528 82.612 152.12 83.47 151.304 84.082C150.488 84.694 149.306 85 147.758 85H141.782V72.4H147.416C148.832 72.4 149.936 72.682 150.728 73.246C151.52 73.81 151.916 74.608 151.916 75.64C151.916 76.3 151.754 76.87 151.43 77.35C151.118 77.83 150.662 78.196 150.062 78.448ZM144.086 77.782H147.218C147.974 77.782 148.55 77.632 148.946 77.332C149.342 77.032 149.54 76.588 149.54 76C149.54 75.412 149.342 74.968 148.946 74.668C148.55 74.356 147.974 74.2 147.218 74.2H144.086V77.782ZM147.686 83.2C149.342 83.2 150.17 82.576 150.17 81.328C150.17 80.104 149.342 79.492 147.686 79.492H144.086V83.2H147.686ZM164.644 83.038V85H155.194V72.4H164.392V74.362H157.534V77.638H163.618V79.564H157.534V83.038H164.644ZM167.27 72.4H177.08V74.326H169.574V77.422H173.3C174.812 77.422 175.958 77.74 176.738 78.376C177.53 79 177.926 79.906 177.926 81.094C177.926 82.342 177.494 83.308 176.63 83.992C175.766 84.664 174.536 85 172.94 85H167.27V72.4ZM172.814 83.2C173.714 83.2 174.398 83.026 174.866 82.678C175.334 82.33 175.568 81.826 175.568 81.166C175.568 79.87 174.65 79.222 172.814 79.222H169.574V83.2H172.814ZM179.715 79.06H184.665V80.932H179.715V79.06ZM193.298 85.18C192.026 85.18 190.874 84.904 189.842 84.352C188.822 83.788 188.018 83.014 187.43 82.03C186.854 81.046 186.566 79.936 186.566 78.7C186.566 77.464 186.86 76.354 187.448 75.37C188.036 74.386 188.84 73.618 189.86 73.066C190.892 72.502 192.044 72.22 193.316 72.22C194.348 72.22 195.29 72.4 196.142 72.76C196.994 73.12 197.714 73.642 198.302 74.326L196.79 75.748C195.878 74.764 194.756 74.272 193.424 74.272C192.56 74.272 191.786 74.464 191.102 74.848C190.418 75.22 189.884 75.742 189.5 76.414C189.116 77.086 188.924 77.848 188.924 78.7C188.924 79.552 189.116 80.314 189.5 80.986C189.884 81.658 190.418 82.186 191.102 82.57C191.786 82.942 192.56 83.128 193.424 83.128C194.756 83.128 195.878 82.63 196.79 81.634L198.302 83.074C197.714 83.758 196.988 84.28 196.124 84.64C195.272 85 194.33 85.18 193.298 85.18ZM209.478 74.38H205.302V85H202.98V74.38H198.822V72.4H209.478V74.38ZM221.77 72.4L216.298 82.57C215.818 83.47 215.242 84.148 214.57 84.604C213.91 85.048 213.19 85.27 212.41 85.27C211.786 85.27 211.168 85.138 210.556 84.874L211.132 83.038C211.624 83.194 212.032 83.272 212.356 83.272C213.112 83.272 213.736 82.882 214.228 82.102L214.426 81.796L209.404 72.4H211.906L215.632 79.798L219.466 72.4H221.77ZM235.695 83.02V87.682H233.535V85H223.869V87.682H221.691L221.709 83.02H222.249C223.041 82.984 223.593 82.402 223.905 81.274C224.229 80.134 224.427 78.508 224.499 76.396L224.643 72.4H233.877V83.02H235.695ZM226.551 76.612C226.491 78.244 226.359 79.606 226.155 80.698C225.951 81.778 225.627 82.552 225.183 83.02H231.573V74.38H226.641L226.551 76.612ZM237.917 72.4H240.221V81.346L246.989 72.4H249.167V85H246.863V76.072L240.095 85H237.917V72.4ZM262.33 72.4V85H260.026V81.49H256.912H256.66L254.32 85H251.854L254.554 81.112C253.678 80.788 253 80.278 252.52 79.582C252.052 78.874 251.818 78.022 251.818 77.026C251.818 76.066 252.034 75.238 252.466 74.542C252.898 73.846 253.51 73.318 254.302 72.958C255.094 72.586 256.024 72.4 257.092 72.4H262.33ZM257.164 74.38C256.204 74.38 255.466 74.602 254.95 75.046C254.446 75.49 254.194 76.138 254.194 76.99C254.194 77.818 254.44 78.46 254.932 78.916C255.424 79.36 256.138 79.582 257.074 79.582H260.026V74.38H257.164Z" fill="#6EB1FF"/>
<path d="M83.7904 0.0440833C81.7668 -0.131687 78.0989 1.48414 77.101 3.22929C74.3476 8.67943 71.5588 14.7799 69.8488 20.8063C68.2931 26.2929 66.7147 30.0293 64.9591 35.0349C62.212 42.8743 60.8638 49.8084 58.5594 53.0363C57.8005 54.1035 61.4974 50.3056 59.8241 49.3025C57.7271 48.7275 56.451 52.5517 53.8405 52.3546C49.5402 51.9014 57.7613 49.1845 58.8996 47.1769C62.0236 40.4562 54.359 48.7526 51.9775 48.917C25.3779 60.7351 9.48597 18.3568 36.6951 12.5552C40.9891 11.4076 53.0108 8.7171 51.0516 15.8383C50.3788 17.7868 48.9508 19.4793 47.49 21.0474C45.1818 23.5145 45.0427 24.9985 39.5498 25.3161C32.4543 26.2062 32.4126 38.0682 39.5333 38.75C44.1915 39.7958 48.5221 35.9163 48.1604 32.2214C48.7295 30.3557 47.6418 29.4304 49.3176 28.5013C52.9134 25.4642 57.1593 20.166 57.2933 19.9852C58.83 18.1133 59.2955 17.8609 59.9051 15.8107C61.6631 9.89601 60.5248 11.4968 56.9645 8.19481C54.7309 4.1885 49.8172 4.54632 46.1645 3.84323C45.0427 3.28328 49.4428 2.64172 47.4028 2.0215C46.2126 1.66117 39.1147 3.0598 37.75 2.53626C36.3195 1.9876 41.0055 0.418223 39.4979 0.0415723C36.9759 -0.247193 34.7904 1.04597 32.486 1.52809C29.8392 2.0567 27.2855 2.97008 24.9074 4.23872C21.5785 6.04162 18.3723 8.34045 16.7534 10.9506C16.6969 11.0945 16.5934 11.2154 16.4595 11.294C16.3256 11.3726 16.169 11.4044 16.0148 11.3843C15.8606 11.3642 15.7176 11.2934 15.6087 11.1831C15.4998 11.0729 15.4312 10.9296 15.414 10.7761C15.1762 9.42143 14.7158 7.97509 14.2757 6.51871C12.5923 -1.31312 -1.90968 -2.13421 0.211355 7.58212C4.13217 23.1328 18.2737 54.9573 25.875 76.2669C27.843 81.7823 31.2553 87.2274 34.3692 92.1854C38.3115 98.5596 47.6216 98.6149 51.6398 92.2896C54.8472 87.3932 57.8852 82.223 59.8886 76.7314C68.7598 53.2862 79.2069 29.4706 88.6042 7.03096C90.0169 3.66119 87.4697 -0.0450574 83.7904 0.0440833ZM52.7072 61.4871C55.3291 60.7125 53.518 63.7094 53.1474 64.4225C49.8969 70.6611 44.877 87.5162 40.2087 79.8037C23.4428 52.1035 37.2833 66.0396 52.7072 61.4871Z" fill="#6EB1FF"/>
</svg>
